<?xml version="1.0" standalone="no"?>
<!DOCTYPE svg PUBLIC "-//W3C//DTD SVG 20010904//EN"
 "http://www.w3.org/TR/2001/REC-SVG-20010904/DTD/svg10.dtd">
<svg version="1.0" xmlns="http://www.w3.org/2000/svg"
 width="1984.000000pt" height="1984.000000pt" viewBox="0 0 1984.000000 1984.000000"
 preserveAspectRatio="xMidYMid meet">
<metadata>
Created by potrace 1.14, written by Peter Selinger 2001-2017
</metadata>
<g transform="translate(0.000000,1984.000000) scale(0.100000,-0.100000)"
fill="#000000" stroke="none">
<path d="M10 14090 c0 -66 3 -120 8 -121 4 0 18 -2 32 -4 14 -2 59 -7 101 -10
41 -3 86 -8 100 -10 13 -3 44 -8 69 -11 25 -3 55 -7 68 -10 12 -2 34 -6 50 -9
62 -12 207 -49 212 -54 3 -3 12 -7 20 -9 70 -12 206 -99 269 -170 51 -57 119
-180 127 -231 3 -14 8 -35 11 -46 16 -49 26 -103 40 -230 9 -81 10 -6226 0
-6300 -3 -27 -8 -73 -12 -101 -5 -49 -8 -66 -20 -124 -2 -14 -6 -36 -9 -50
-18 -108 -97 -263 -171 -336 -74 -73 -220 -148 -328 -170 -10 -2 -26 -5 -35
-8 -9 -3 -32 -8 -49 -11 -18 -3 -45 -7 -60 -10 -16 -2 -50 -7 -78 -10 -27 -4
-61 -8 -75 -10 -27 -4 -211 -18 -247 -19 -23 0 -23 -2 -23 -121 l0 -122 1775
0 1775 0 1 26 c3 77 0 201 -5 209 -3 5 -27 10 -53 11 -95 5 -273 20 -306 27
-12 2 -42 7 -67 10 -53 7 -54 7 -150 29 -41 10 -79 21 -85 26 -5 5 -16 9 -25
9 -15 0 -135 57 -174 82 -35 23 -112 102 -131 136 -11 17 -23 32 -27 32 -4 0
-8 6 -8 14 0 8 -8 31 -19 53 -22 45 -41 100 -45 128 -2 11 -6 29 -9 40 -3 11
-9 40 -12 65 -3 25 -8 59 -11 75 -3 17 -7 60 -8 96 -2 37 -6 71 -10 77 -3 6
-2 13 4 17 6 4 7 12 3 18 -12 19 -10 2976 2 2980 5 2 474 3 1040 2 912 -2
1205 -6 1279 -21 12 -2 41 -7 66 -10 25 -3 54 -8 65 -11 11 -3 31 -7 45 -8 14
-1 50 -10 80 -20 242 -78 362 -180 474 -402 20 -40 36 -74 35 -75 0 -2 3 -12
6 -23 4 -11 11 -31 15 -45 4 -14 11 -34 16 -45 4 -11 8 -24 10 -30 1 -5 7 -30
13 -55 7 -25 13 -52 15 -60 7 -27 47 -230 50 -253 2 -12 6 -38 10 -57 3 -19 8
-47 10 -62 3 -15 7 -32 10 -36 4 -7 263 -10 286 -3 3 0 5 663 5 1471 0 1299
-2 1471 -15 1474 -24 6 -268 2 -274 -5 -7 -7 -10 -19 -20 -92 -4 -27 -10 -59
-12 -70 -3 -12 -7 -33 -10 -47 -9 -46 -42 -195 -54 -235 -6 -22 -12 -48 -15
-58 -20 -86 -117 -300 -152 -335 -7 -7 -13 -17 -13 -21 0 -4 -26 -34 -57 -67
-89 -94 -174 -145 -320 -195 -46 -15 -83 -25 -83 -22 0 3 -6 0 -13 -6 -8 -6
-16 -9 -18 -6 -3 2 -22 0 -44 -5 -37 -9 -79 -14 -180 -25 -134 -14 -362 -17
-1240 -17 -539 0 -989 1 -1000 1 -20 1 -20 5 -20 1484 1 1409 2 1486 20 1560
30 126 101 187 239 206 56 7 2211 5 2361 -2 66 -4 138 -9 160 -11 22 -3 69 -7
105 -11 36 -3 77 -8 90 -11 14 -2 43 -7 65 -10 41 -5 46 -6 125 -24 25 -6 55
-13 67 -15 64 -15 202 -71 283 -116 65 -36 240 -193 240 -216 0 -4 11 -21 24
-36 47 -55 152 -289 187 -417 15 -55 17 -63 28 -98 5 -18 10 -33 10 -35 0 -1
2 -9 5 -17 2 -8 7 -28 9 -45 3 -16 12 -60 20 -96 20 -85 28 -130 30 -152 1
-16 14 -17 162 -15 l160 3 0 145 c0 80 -4 150 -8 157 -4 6 -3 14 3 18 6 3 7
11 4 17 -4 6 -8 97 -9 202 -2 105 -6 333 -10 506 -12 527 -14 612 -14 693 l-1
77 -3380 0 -3380 0 0 -120z"/>
<path d="M11170 14090 l0 -120 28 -1 c58 -1 211 -17 232 -24 10 -3 31 -8 46
-10 124 -18 273 -99 384 -207 73 -72 170 -190 170 -207 0 -5 4 -11 8 -13 12
-5 91 -128 162 -252 66 -115 309 -593 349 -686 12 -30 32 -75 43 -100 12 -25
29 -63 38 -85 53 -121 72 -163 85 -188 8 -16 15 -35 15 -43 0 -8 5 -14 10 -14
6 0 10 -6 10 -14 0 -8 7 -27 15 -43 15 -28 35 -73 106 -238 22 -49 46 -102 54
-116 8 -14 12 -29 8 -33 -3 -3 -1 -6 5 -6 7 0 12 -4 12 -10 0 -5 12 -35 27
-67 14 -32 27 -60 27 -63 1 -3 7 -15 14 -27 7 -13 10 -23 6 -23 -3 0 -2 -6 4
-12 5 -7 49 -101 97 -208 83 -188 97 -218 144 -322 11 -26 21 -52 21 -58 0 -5
5 -10 10 -10 6 0 10 -6 10 -13 0 -12 58 -145 130 -302 10 -22 25 -56 34 -76 8
-19 30 -66 47 -105 18 -38 33 -71 34 -74 1 -3 9 -22 18 -42 9 -21 25 -55 34
-75 9 -21 17 -40 18 -43 3 -8 34 -78 72 -159 19 -41 44 -98 56 -125 11 -28 26
-54 31 -58 6 -4 8 -8 3 -8 -4 0 0 -15 10 -32 9 -18 17 -35 18 -38 0 -3 24 -59
54 -125 30 -66 64 -144 77 -173 13 -29 24 -57 24 -62 0 -6 5 -10 10 -10 6 0
10 -7 10 -14 0 -8 16 -50 36 -93 20 -43 41 -91 49 -108 7 -16 22 -50 33 -75
43 -92 92 -202 92 -205 0 -3 50 -115 85 -190 8 -16 26 -57 41 -90 14 -33 32
-73 40 -90 36 -77 176 -391 178 -400 2 -5 14 -32 27 -60 13 -27 24 -52 24 -55
1 -3 18 -40 38 -84 20 -43 37 -80 37 -81 0 -1 14 -33 32 -71 17 -38 32 -71 33
-74 1 -3 11 -26 23 -52 12 -27 31 -69 43 -95 11 -27 29 -66 39 -88 10 -22 27
-60 38 -85 29 -67 61 -138 89 -200 14 -30 43 -95 65 -145 22 -49 50 -110 61
-135 11 -25 21 -47 22 -50 4 -11 25 -60 74 -167 28 -62 51 -117 51 -123 0 -5
5 -10 12 -10 6 0 8 -3 5 -6 -3 -4 -1 -16 5 -28 7 -11 11 -24 10 -28 -1 -5 2
-8 8 -8 6 0 9 -3 8 -7 -1 -8 8 -29 63 -151 17 -37 37 -80 44 -97 7 -16 32 -73
55 -125 73 -165 77 -174 101 -225 12 -27 23 -52 24 -55 0 -3 9 -19 18 -37 9
-18 17 -39 17 -48 0 -8 4 -15 8 -15 4 0 12 -15 17 -32 l10 -33 105 -3 106 -3
58 153 c32 84 63 157 67 162 5 6 9 17 9 25 0 9 6 27 13 41 7 14 21 48 31 75
10 28 24 64 31 80 7 17 36 91 65 165 28 74 56 144 61 155 32 73 179 458 179
469 0 7 7 19 15 26 9 7 14 19 11 26 -3 7 -1 16 3 18 4 3 21 40 36 83 15 43 31
83 35 88 4 6 17 39 30 75 13 36 29 79 36 95 13 32 119 303 186 475 23 58 47
119 54 135 39 93 107 272 107 283 0 6 4 12 9 12 4 0 8 5 8 11 0 11 71 202 95
254 8 17 50 122 94 235 44 113 85 219 92 235 7 17 13 35 14 41 2 6 10 27 18
45 9 19 38 93 66 164 27 72 56 144 62 160 7 17 13 32 13 35 4 14 136 348 161
405 9 22 19 47 21 55 3 16 64 170 92 235 9 21 17 42 18 45 1 6 20 55 33 85 5
11 32 81 60 155 29 74 56 144 61 155 5 11 39 97 75 190 36 94 69 178 75 187 5
10 10 23 10 29 0 5 11 34 24 62 13 29 27 63 31 77 4 14 14 41 22 60 20 48 29
69 43 110 7 19 19 49 26 65 7 17 34 84 59 150 26 66 70 179 98 250 28 72 52
132 53 135 0 3 6 17 12 33 7 15 17 39 24 55 6 15 12 30 13 35 2 4 3 8 5 10 1
1 3 9 5 17 2 8 14 38 26 65 13 28 24 52 24 55 10 38 19 67 24 75 4 6 24 55 45
110 21 55 46 116 54 135 8 19 15 41 15 48 0 6 4 12 9 12 4 0 8 9 8 20 0 11 4
20 8 20 5 0 9 6 9 14 0 13 28 88 63 171 200 464 340 731 457 878 64 80 130
145 155 153 10 3 18 10 18 15 0 10 110 65 170 86 52 18 159 39 245 49 28 3 61
7 75 9 14 2 33 3 43 4 16 1 18 12 16 121 l-1 120 -1304 0 -1304 0 0 -120 c0
-89 3 -120 13 -121 6 -1 23 -2 37 -4 14 -1 63 -5 110 -9 47 -4 92 -8 100 -11
8 -2 35 -6 60 -9 25 -3 56 -8 70 -11 14 -3 39 -8 55 -11 45 -9 45 -9 109 -28
70 -21 181 -72 206 -95 95 -86 114 -113 151 -210 13 -36 18 -219 7 -301 -4
-25 -7 -45 -8 -45 -1 0 -4 -13 -6 -30 -2 -16 -7 -41 -11 -55 -3 -14 -7 -29 -9
-35 -1 -5 -5 -25 -8 -43 -4 -18 -13 -53 -22 -78 -9 -26 -18 -55 -20 -65 -2
-11 -6 -27 -8 -36 -7 -26 -84 -244 -96 -268 -5 -11 -19 -45 -30 -75 -26 -65
-26 -65 -80 -200 -24 -58 -52 -125 -62 -150 -11 -25 -21 -52 -23 -60 -4 -15
-78 -199 -95 -235 -12 -24 -32 -76 -36 -90 -1 -5 -10 -28 -20 -50 -10 -22 -19
-44 -20 -50 -3 -11 -110 -279 -124 -310 -20 -43 -191 -471 -195 -486 -2 -9
-12 -34 -23 -55 -11 -22 -20 -41 -20 -44 -1 -7 -11 -34 -70 -180 -138 -347
-175 -436 -184 -447 -5 -7 -7 -17 -4 -22 4 -5 2 -12 -3 -15 -5 -4 -15 -23 -22
-44 -6 -20 -20 -55 -30 -77 -9 -22 -36 -87 -59 -145 -22 -58 -45 -114 -50
-125 -10 -23 -363 -900 -420 -1045 -21 -52 -56 -141 -79 -197 -22 -57 -41
-110 -41 -118 0 -8 -4 -15 -9 -15 -11 0 -32 -56 -24 -64 4 -3 1 -6 -5 -6 -7 0
-12 -6 -12 -14 0 -8 -15 -50 -34 -94 -19 -44 -32 -83 -29 -86 4 -3 1 -6 -5 -6
-7 0 -12 -6 -12 -12 0 -20 -97 -252 -107 -255 -4 -2 -30 48 -57 109 -27 62
-65 147 -84 188 -18 41 -44 100 -57 130 -13 30 -30 69 -39 85 -9 17 -16 33
-16 37 0 4 -13 35 -29 70 -107 234 -181 403 -181 415 0 6 -3 13 -7 15 -5 2
-30 55 -57 118 -27 63 -67 153 -89 200 -22 47 -40 91 -40 98 0 6 -4 12 -9 12
-4 0 -8 8 -8 18 0 10 -4 22 -8 28 -5 5 -18 32 -30 60 -11 27 -36 84 -55 125
-19 41 -57 126 -85 189 -27 63 -66 150 -86 193 -20 43 -36 80 -36 82 0 6 -60
138 -76 168 -8 15 -12 27 -9 27 3 0 -6 20 -20 45 -14 25 -25 52 -25 60 0 8 -4
15 -10 15 -5 0 -10 5 -10 11 0 10 -79 194 -151 354 -13 28 -24 52 -24 55 -1 3
-11 25 -22 50 -11 25 -46 104 -78 175 -31 72 -72 163 -91 203 -19 41 -34 76
-34 78 0 2 -14 34 -31 71 -17 38 -67 149 -111 248 -43 99 -88 200 -100 225
-40 87 -120 269 -123 280 0 3 -12 30 -27 60 -48 103 -89 196 -93 210 0 3 -11
27 -24 55 -13 27 -24 54 -25 60 -1 5 -6 17 -11 25 -11 17 -83 183 -122 280
-31 79 -44 111 -72 172 -11 26 -21 50 -21 52 0 3 -5 17 -12 33 -6 15 -12 30
-13 33 -1 3 -5 12 -8 20 -16 39 -79 228 -83 249 -3 14 -7 28 -9 32 -21 32 -24
210 -6 274 42 149 198 255 431 291 19 3 43 7 53 10 9 3 81 8 160 10 127 4 260
10 295 13 9 1 12 32 12 121 l0 120 -1700 0 -1700 0 0 -120z"/>
<path d="M8527 11524 c-2 -2 -72 -15 -102 -18 -82 -9 -330 -94 -346 -119 -3
-5 -9 -8 -13 -8 -10 2 -67 -29 -116 -63 -153 -106 -267 -219 -363 -358 -51
-75 -141 -253 -153 -304 -4 -16 -11 -35 -17 -41 -5 -7 -7 -13 -4 -13 3 0 1
-15 -5 -32 -18 -58 -35 -149 -42 -225 -2 -22 -6 -46 -10 -51 -3 -6 -2 -13 3
-17 6 -3 8 -11 5 -18 -8 -23 -10 -107 -1 -107 4 0 3 -8 -2 -19 -6 -10 -7 -21
-4 -25 4 -3 7 -30 9 -59 3 -92 15 -168 44 -297 6 -25 13 -56 16 -70 3 -14 17
-63 30 -110 14 -47 29 -99 33 -115 4 -17 13 -39 18 -50 6 -11 11 -24 12 -30 1
-12 48 -161 60 -190 5 -11 16 -42 26 -70 9 -27 19 -57 22 -65 4 -8 7 -18 7
-22 1 -3 4 -10 9 -14 22 -23 2 -46 -85 -97 -149 -87 -181 -105 -223 -128 -65
-36 -184 -108 -279 -171 -48 -32 -92 -58 -98 -58 -5 0 -6 -4 -3 -10 3 -5 0
-10 -7 -10 -14 0 -15 -1 -173 -128 -182 -146 -363 -335 -460 -478 -22 -32 -43
-60 -47 -62 -5 -2 -8 -10 -8 -18 0 -8 -5 -14 -12 -14 -6 0 -9 -3 -5 -6 3 -3
-8 -27 -24 -52 -16 -25 -29 -52 -29 -59 0 -7 -4 -13 -8 -13 -5 0 -17 -19 -26
-42 -44 -105 -78 -195 -82 -213 -10 -41 -13 -50 -14 -52 -3 -4 -3 -5 -20 -78
-7 -33 -14 -71 -15 -85 -2 -14 -4 -25 -5 -25 -12 0 -20 -380 -9 -439 4 -22 10
-61 14 -86 15 -104 57 -236 110 -341 37 -74 58 -112 65 -119 3 -3 24 -31 48
-63 75 -100 184 -197 317 -282 33 -21 61 -37 62 -37 5 3 78 -33 84 -41 3 -5
10 -9 15 -9 5 0 14 -2 19 -4 78 -28 201 -64 215 -64 10 0 21 -4 24 -8 2 -4 21
-9 42 -10 20 -2 41 -5 46 -8 9 -6 27 -8 153 -21 136 -13 523 -6 585 12 8 2 33
7 55 9 85 11 107 16 206 41 111 28 237 69 282 92 15 7 27 11 27 8 0 -2 16 4
35 15 20 11 39 20 44 20 7 0 99 48 226 119 79 44 329 216 371 256 6 5 29 24
50 40 21 17 69 56 106 89 78 67 60 71 178 -44 167 -163 325 -294 480 -396 84
-55 232 -139 252 -143 4 -1 28 -10 53 -21 47 -20 197 -68 237 -75 13 -3 34 -7
48 -9 133 -26 431 -26 501 -1 8 2 25 6 39 9 20 3 78 18 120 31 3 1 18 7 33 13
16 7 31 12 33 12 3 0 40 17 82 37 134 64 300 186 391 285 20 22 51 57 69 77
18 20 40 48 48 64 8 15 19 27 24 27 6 0 10 6 10 14 0 8 4 16 8 18 10 4 72 105
72 117 0 5 4 11 9 13 5 2 31 50 59 108 35 72 48 108 41 116 -6 7 -35 29 -65
50 -55 38 -56 38 -70 19 -65 -92 -219 -244 -306 -301 -85 -55 -170 -89 -275
-107 -91 -15 -283 -15 -363 2 -30 6 -66 13 -80 15 -14 3 -25 5 -25 6 0 1 -9 3
-20 5 -42 7 -160 50 -167 60 -4 5 -8 7 -8 3 0 -8 -91 34 -174 81 -55 30 -197
129 -255 176 -56 46 -261 256 -318 326 l-62 76 39 54 c21 30 46 62 54 72 9 9
16 22 16 27 0 6 5 10 10 10 6 0 10 6 10 14 0 8 3 16 8 18 4 2 32 38 62 81 30
43 73 104 95 135 81 113 235 341 235 347 0 3 5 11 11 18 24 28 205 315 277
441 13 23 30 51 38 64 8 12 32 55 53 95 21 39 48 90 61 112 12 22 41 74 63
115 134 250 273 397 449 478 56 26 187 65 273 81 118 23 106 11 104 106 -1 79
-3 85 -23 85 -11 0 -30 0 -41 0 -11 0 -119 0 -240 0 -121 0 -247 -1 -280 -1
-59 0 -421 1 -440 1 -12 1 -614 0 -635 0 -8 0 -49 -1 -90 -2 l-75 -3 0 -70
c-1 -90 2 -101 28 -102 36 -2 136 -18 177 -28 127 -31 206 -61 229 -89 7 -9
19 -16 27 -16 7 0 16 -9 19 -20 3 -11 10 -20 15 -20 5 0 18 -26 30 -57 39
-104 27 -316 -25 -468 -10 -27 -19 -54 -20 -60 -3 -15 -14 -43 -41 -104 -13
-29 -24 -59 -24 -66 0 -8 -3 -15 -7 -17 -5 -1 -27 -41 -51 -88 -46 -93 -81
-155 -118 -212 -13 -21 -24 -42 -24 -48 0 -5 -4 -10 -10 -10 -5 0 -10 -5 -10
-12 0 -6 -11 -26 -25 -44 -14 -18 -25 -35 -25 -37 0 -3 -35 -56 -77 -119 -223
-327 -303 -430 -303 -390 0 4 -15 23 -33 43 -17 20 -54 65 -82 100 -27 35 -55
71 -62 79 -7 8 -36 44 -64 80 -27 36 -56 72 -63 81 -7 9 -49 67 -94 130 -44
63 -87 121 -95 130 -8 9 -16 20 -18 25 -4 8 -72 114 -149 229 -15 22 -44 69
-65 105 -21 36 -41 67 -44 70 -3 3 -16 23 -27 45 -12 22 -51 92 -86 155 -36
63 -96 174 -133 245 -37 72 -72 134 -76 139 -5 6 -9 18 -9 28 0 10 -4 18 -10
18 -23 0 -8 26 23 39 178 77 531 268 624 337 17 13 36 24 41 24 6 0 12 4 14 8
2 4 32 30 68 57 91 69 267 247 323 326 60 85 121 206 157 314 16 47 27 85 25
85 -3 0 0 12 5 26 6 14 13 49 18 77 9 67 9 300 -1 352 -4 22 -10 53 -13 69 -3
16 -7 33 -10 38 -3 4 -7 16 -9 25 -5 25 -39 117 -45 123 -3 3 -18 32 -35 65
-16 33 -32 62 -35 65 -3 3 -21 25 -39 50 -36 48 -189 200 -202 200 -4 0 -14 6
-21 13 -12 11 -136 87 -142 87 -2 0 -25 10 -52 22 -27 12 -51 23 -54 23 -3 0
-34 10 -70 22 -67 22 -133 37 -210 49 -42 6 -327 13 -333 8z m268 -278 c206
-30 403 -182 494 -381 31 -66 40 -91 46 -123 2 -15 9 -49 14 -77 10 -51 8
-271 -3 -315 -3 -14 -8 -37 -11 -53 -5 -26 -29 -105 -42 -137 -7 -18 -10 -27
-12 -39 0 -5 -7 -16 -14 -23 -7 -7 -18 -25 -24 -40 -30 -67 -114 -178 -202
-267 -113 -113 -133 -131 -243 -211 -46 -33 -87 -64 -93 -68 -5 -4 -22 -13
-37 -21 -15 -8 -37 -22 -47 -33 -11 -10 -27 -18 -36 -18 -8 0 -15 -5 -15 -11
0 -5 -4 -7 -10 -4 -5 3 -10 3 -10 -2 0 -4 -15 -16 -33 -27 -82 -48 -97 -55
-97 -50 0 2 -10 -4 -22 -16 -12 -11 -25 -17 -29 -13 -4 5 -26 51 -49 103 -23
52 -46 103 -51 112 -61 118 -186 501 -205 626 -3 21 -7 44 -10 52 -18 65 -26
417 -11 500 46 245 209 440 434 516 25 9 62 18 82 20 19 3 36 6 38 8 5 4 154
-1 198 -8z m-945 -2679 c35 -67 64 -125 62 -129 -1 -5 2 -8 7 -8 5 0 14 -15
22 -32 7 -18 15 -35 18 -38 3 -3 14 -21 25 -40 10 -19 32 -60 48 -90 17 -30
44 -79 60 -109 17 -29 43 -76 59 -103 16 -27 29 -52 29 -55 0 -4 6 -14 14 -22
7 -9 27 -41 43 -71 16 -30 53 -92 81 -138 29 -46 52 -88 52 -93 0 -5 5 -9 10
-9 6 0 10 -5 10 -10 0 -6 15 -32 33 -58 52 -77 57 -86 63 -104 4 -10 10 -18
15 -18 5 0 9 -6 9 -14 0 -8 4 -16 8 -18 5 -1 25 -28 44 -58 81 -125 276 -392
384 -526 98 -123 109 -137 117 -150 7 -12 -20 -35 -202 -171 -31 -24 -61 -45
-68 -49 -7 -3 -48 -29 -92 -58 -107 -71 -305 -168 -418 -206 -135 -45 -242
-62 -383 -63 -115 -1 -148 2 -235 19 -42 8 -144 41 -180 58 -96 46 -145 72
-145 79 0 4 -5 7 -12 7 -35 0 -256 201 -305 277 -10 16 -23 34 -30 41 -26 27
-119 199 -128 237 -2 6 -12 35 -23 65 -24 63 -39 120 -47 170 -2 19 -9 61 -13
92 -10 63 -8 249 2 318 16 105 19 118 46 205 67 214 232 442 454 630 26 22 55
47 64 56 10 8 35 29 57 45 22 16 42 31 45 34 20 20 91 70 99 70 6 0 11 3 11 8
0 4 12 14 28 23 15 9 63 42 107 73 44 31 82 56 85 56 3 0 34 -55 70 -123z"/>
</g>
</svg>
